<?xml version="1.0" standalone="no"?>
<!DOCTYPE svg PUBLIC "-//W3C//DTD SVG 20010904//EN"
 "http://www.w3.org/TR/2001/REC-SVG-20010904/DTD/svg10.dtd">
<svg version="1.0" xmlns="http://www.w3.org/2000/svg"
 width="208.000000pt" height="208.000000pt" viewBox="0 0 208.000000 208.000000"
 preserveAspectRatio="xMidYMid meet">

<g transform="translate(0.000000,208.000000) scale(0.100000,-0.100000)"
fill="#000000" stroke="none">
<path d="M847 2064 c-226 -41 -459 -178 -606 -357 -460 -556 -236 -1390 439
-1644 406 -152 884 -25 1159 310 460 556 236 1390 -439 1644 -163 61 -376 79
-553 47z m172 -740 c20 -25 21 -39 21 -284 0 -245 -1 -259 -21 -284 -16 -20
-29 -26 -61 -26 -39 0 -46 5 -162 126 -66 69 -127 139 -134 155 -19 45 -1 72
134 213 116 121 123 126 162 126 32 0 45 -6 61 -26z m401 -207 c36 -18 48 -59
26 -91 -16 -26 -17 -26 -156 -26 -139 0 -140 0 -156 26 -13 19 -15 32 -8 52
15 41 48 52 164 52 64 0 115 -5 130 -13z"/>
</g>
</svg>
